# xmcd
#
# Track frame offsets: 
#        151
#        17445
#        37939
#        55523
#        69961
#        93492
#        110927
#        129396
#        141813
#        153404
#
# Disc length: 2458 seconds
#
# Revision: 0
# Processed by: cddbd v1.5.2PL0 Copyright (c) Steve Scherf et al.
# Submitted via: ExactAudioCopy v0.95b4
#
DISCID=7a09980a
DTITLE=Howlin Wolf - The Howlin Wolf Album
DYEAR=1968
DGENRE=Blues
TTITLE0=Spoonful
TTITLE1=Tail Dragger
TTITLE2=Smokestack Lightning
TTITLE3=Moanin at Midnight
TTITLE4=Built for Comfort
TTITLE5=The Red Rooster
TTITLE6=Evil
TTITLE7=Down in the Bottom
TTITLE8=Three Hundred Pounds
TTITLE9=Back Door Man
EXTD=
EXTT0=
EXTT1=
EXTT2=
EXTT3=
EXTT4=
EXTT5=
EXTT6=
EXTT7=
EXTT8=
EXTT9=
PLAYORDER=
